<svg width="1820" height="1820" viewBox="0 0 1820 1820" fill="none" xmlns="http://www.w3.org/2000/svg">
<rect width="1820" height="1820" rx="20" fill="white"/>
<rect width="84" height="84" rx="20" fill="#999999" fill-opacity="0.2"/>
<rect opacity="0.6" x="124" width="84" height="84" rx="20" fill="#999999" fill-opacity="0.2"/>
<rect x="248" width="84" height="84" rx="20" fill="#999999" fill-opacity="0.2"/>
<rect x="372" width="84" height="84" rx="20" fill="#999999" fill-opacity="0.2"/>
<rect opacity="0.3" x="496" width="84" height="84" rx="20" fill="#999999" fill-opacity="0.2"/>
<rect x="620" width="84" height="84" rx="20" fill="#999999" fill-opacity="0.2"/>
<rect x="744" width="84" height="84" rx="20" fill="#999999" fill-opacity="0.2"/>
<rect x="868" width="84" height="84" rx="20" fill="#999999" fill-opacity="0.2"/>
<rect x="992" width="84" height="84" rx="20" fill="#999999" fill-opacity="0.2"/>
<rect opacity="0.2" x="1116" width="84" height="84" rx="20" fill="#999999" fill-opacity="0.2"/>
<rect opacity="0.7" x="1240" width="84" height="84" rx="20" fill="#999999" fill-opacity="0.2"/>
<rect x="1364" width="84" height="84" rx="20" fill="#999999" fill-opacity="0.2"/>
<rect x="1488" width="84" height="84" rx="20" fill="#999999" fill-opacity="0.2"/>
<rect opacity="0.6" x="1612" width="84" height="84" rx="20" fill="#999999" fill-opacity="0.2"/>
<rect x="1736" width="84" height="84" rx="20" fill="#999999" fill-opacity="0.2"/>
<rect y="124" width="84" height="84" rx="20" fill="#999999" fill-opacity="0.2"/>
<rect x="124" y="124" width="84" height="84" rx="20" fill="#999999" fill-opacity="0.2"/>
<rect x="248" y="124" width="84" height="84" rx="20" fill="#999999" fill-opacity="0.2"/>
<rect x="372" y="124" width="84" height="84" rx="20" fill="#999999" fill-opacity="0.2"/>
<rect opacity="0.3" x="496" y="124" width="84" height="84" rx="20" fill="#999999" fill-opacity="0.2"/>
<rect x="620" y="124" width="84" height="84" rx="20" fill="#999999" fill-opacity="0.2"/>
<rect x="744" y="124" width="84" height="84" rx="20" fill="#999999" fill-opacity="0.2"/>
<rect opacity="0.2" x="868" y="124" width="84" height="84" rx="20" fill="#999999" fill-opacity="0.2"/>
<rect x="992" y="124" width="84" height="84" rx="20" fill="#999999" fill-opacity="0.2"/>
<rect x="1116" y="124" width="84" height="84" rx="20" fill="#999999" fill-opacity="0.2"/>
<rect opacity="0.8" x="1240" y="124" width="84" height="84" rx="20" fill="#999999" fill-opacity="0.2"/>
<rect x="1364" y="124" width="84" height="84" rx="20" fill="#999999" fill-opacity="0.2"/>
<rect x="1488" y="124" width="84" height="84" rx="20" fill="#999999" fill-opacity="0.2"/>
<rect x="1612" y="124" width="84" height="84" rx="20" fill="#999999" fill-opacity="0.2"/>
<rect opacity="0.4" x="1736" y="124" width="84" height="84" rx="20" fill="#999999" fill-opacity="0.2"/>
<rect y="248" width="84" height="84" rx="20" fill="#999999" fill-opacity="0.2"/>
<rect x="124" y="248" width="84" height="84" rx="20" fill="#999999" fill-opacity="0.2"/>
<rect opacity="0.5" x="248" y="248" width="84" height="84" rx="20" fill="#999999" fill-opacity="0.2"/>
<rect x="372" y="248" width="84" height="84" rx="20" fill="#999999" fill-opacity="0.2"/>
<rect x="496" y="248" width="84" height="84" rx="20" fill="#999999" fill-opacity="0.2"/>
<rect x="620" y="248" width="84" height="84" rx="20" fill="#999999" fill-opacity="0.2"/>
<rect opacity="0.5" x="744" y="248" width="84" height="84" rx="20" fill="#999999" fill-opacity="0.2"/>
<rect x="868" y="248" width="84" height="84" rx="20" fill="#999999" fill-opacity="0.2"/>
<rect x="992" y="248" width="84" height="84" rx="20" fill="#999999" fill-opacity="0.2"/>
<rect opacity="0.7" x="1116" y="248" width="84" height="84" rx="20" fill="#999999" fill-opacity="0.2"/>
<rect x="1240" y="248" width="84" height="84" rx="20" fill="#999999" fill-opacity="0.2"/>
<rect opacity="0.2" x="1364" y="248" width="84" height="84" rx="20" fill="#999999" fill-opacity="0.2"/>
<rect x="1488" y="248" width="84" height="84" rx="20" fill="#999999" fill-opacity="0.2"/>
<rect x="1612" y="248" width="84" height="84" rx="20" fill="#999999" fill-opacity="0.2"/>
<rect x="1736" y="248" width="84" height="84" rx="20" fill="#999999" fill-opacity="0.2"/>
<rect opacity="0.7" y="372" width="84" height="84" rx="20" fill="#999999" fill-opacity="0.2"/>
<rect x="124" y="372" width="84" height="84" rx="20" fill="#999999" fill-opacity="0.2"/>
<rect opacity="0.7" x="248" y="372" width="84" height="84" rx="20" fill="#999999" fill-opacity="0.2"/>
<rect x="372" y="372" width="84" height="84" rx="20" fill="#999999" fill-opacity="0.2"/>
<rect x="496" y="372" width="84" height="84" rx="42" fill="#38B2AC"/>
<rect x="620" y="372" width="84" height="84" rx="42" fill="#38B2AC"/>
<rect x="744" y="372" width="84" height="84" rx="42" fill="#38B2AC"/>
<rect x="868" y="372" width="84" height="84" rx="42" fill="#848484"/>
<rect x="992" y="372" width="84" height="84" rx="42" fill="#848484"/>
<rect x="1116" y="372" width="84" height="84" rx="42" fill="#848484"/>
<rect x="1240" y="372" width="84" height="84" rx="20" fill="#999999" fill-opacity="0.2"/>
<rect x="1364" y="372" width="84" height="84" rx="20" fill="#999999" fill-opacity="0.2"/>
<rect x="1488" y="372" width="84" height="84" rx="20" fill="#999999" fill-opacity="0.2"/>
<rect x="1612" y="372" width="84" height="84" rx="20" fill="#999999" fill-opacity="0.2"/>
<rect x="1736" y="372" width="84" height="84" rx="20" fill="#999999" fill-opacity="0.2"/>
<rect opacity="0.6" y="496" width="84" height="84" rx="20" fill="#999999" fill-opacity="0.2"/>
<rect opacity="0.6" x="124" y="496" width="84" height="84" rx="20" fill="#999999" fill-opacity="0.2"/>
<rect x="248" y="496" width="84" height="84" rx="20" fill="#999999" fill-opacity="0.2"/>
<rect x="372" y="496" width="84" height="84" rx="42" fill="#38B2AC"/>
<rect x="496" y="496" width="84" height="84" rx="42" fill="#38B2AC"/>
<rect x="620" y="496" width="84" height="84" rx="42" fill="#38B2AC"/>
<rect x="744" y="496" width="84" height="84" rx="42" fill="#38B2AC"/>
<rect x="868" y="496" width="84" height="84" rx="42" fill="#848484"/>
<rect x="992" y="496" width="84" height="84" rx="42" fill="#848484"/>
<rect x="1116" y="496" width="84" height="84" rx="42" fill="#848484"/>
<rect x="1240" y="496" width="84" height="84" rx="42" fill="#848484"/>
<rect opacity="0.7" x="1364" y="496" width="84" height="84" rx="20" fill="#999999" fill-opacity="0.2"/>
<rect opacity="0.2" x="1488" y="496" width="84" height="84" rx="20" fill="#999999" fill-opacity="0.2"/>
<rect x="1612" y="496" width="84" height="84" rx="20" fill="#999999" fill-opacity="0.2"/>
<rect opacity="0.2" x="1736" y="496" width="84" height="84" rx="20" fill="#999999" fill-opacity="0.2"/>
<rect y="620" width="84" height="84" rx="20" fill="#999999" fill-opacity="0.2"/>
<rect x="124" y="620" width="84" height="84" rx="20" fill="#999999" fill-opacity="0.2"/>
<rect x="248" y="620" width="84" height="84" rx="20" fill="#999999" fill-opacity="0.2"/>
<rect x="372" y="620" width="84" height="84" rx="42" fill="#38B2AC"/>
<rect x="496" y="620" width="84" height="84" rx="42" fill="#38B2AC"/>
<rect x="1116" y="620" width="84" height="84" rx="42" fill="#848484"/>
<rect x="1240" y="620" width="84" height="84" rx="42" fill="#848484"/>
<rect opacity="0.99" x="1364" y="620" width="84" height="84" rx="20" fill="#999999" fill-opacity="0.2"/>
<rect opacity="0.9" x="1488" y="620" width="84" height="84" rx="20" fill="#999999" fill-opacity="0.2"/>
<rect opacity="0.9" x="1612" y="620" width="84" height="84" rx="20" fill="#999999" fill-opacity="0.2"/>
<rect opacity="0.9" x="1736" y="620" width="84" height="84" rx="20" fill="#999999" fill-opacity="0.2"/>
<rect y="744" width="84" height="84" rx="20" fill="#999999" fill-opacity="0.2"/>
<rect x="124" y="744" width="84" height="84" rx="20" fill="#999999" fill-opacity="0.2"/>
<rect opacity="0.4" x="248" y="744" width="84" height="84" rx="20" fill="#999999" fill-opacity="0.2"/>
<rect x="372" y="744" width="84" height="84" rx="42" fill="#38B2AC"/>
<rect x="496" y="744" width="84" height="84" rx="42" fill="#38B2AC"/>
<rect x="1116" y="744" width="84" height="84" rx="42" fill="#848484"/>
<rect x="1240" y="744" width="84" height="84" rx="42" fill="#848484"/>
<rect x="1364" y="744" width="84" height="84" rx="20" fill="#999999" fill-opacity="0.2"/>
<rect opacity="0.3" x="1488" y="744" width="84" height="84" rx="20" fill="#999999" fill-opacity="0.2"/>
<rect x="1612" y="744" width="84" height="84" rx="20" fill="#999999" fill-opacity="0.2"/>
<rect x="1736" y="744" width="84" height="84" rx="20" fill="#999999" fill-opacity="0.2"/>
<rect opacity="0.4" y="868" width="84" height="84" rx="20" fill="#999999" fill-opacity="0.2"/>
<rect opacity="0.4" x="124" y="868" width="84" height="84" rx="20" fill="#999999" fill-opacity="0.2"/>
<rect x="248" y="868" width="84" height="84" rx="20" fill="#999999" fill-opacity="0.2"/>
<rect x="372" y="868" width="84" height="84" rx="42" fill="#38B2AC"/>
<rect x="496" y="868" width="84" height="84" rx="42" fill="#38B2AC"/>
<rect x="1116" y="868" width="84" height="84" rx="42" fill="#121212"/>
<rect x="1240" y="868" width="84" height="84" rx="42" fill="#121212"/>
<rect opacity="0.5" x="1364" y="868" width="84" height="84" rx="20" fill="#999999" fill-opacity="0.2"/>
<rect x="1488" y="868" width="84" height="84" rx="20" fill="#999999" fill-opacity="0.2"/>
<rect x="1612" y="868" width="84" height="84" rx="20" fill="#999999" fill-opacity="0.2"/>
<rect opacity="0.3" x="1736" y="868" width="84" height="84" rx="20" fill="#999999" fill-opacity="0.2"/>
<rect y="992" width="84" height="84" rx="20" fill="#999999" fill-opacity="0.2"/>
<rect x="124" y="992" width="84" height="84" rx="20" fill="#999999" fill-opacity="0.2"/>
<rect x="248" y="992" width="84" height="84" rx="20" fill="#999999" fill-opacity="0.2"/>
<rect x="372" y="992" width="84" height="84" rx="42" fill="#38B2AC"/>
<rect x="496" y="992" width="84" height="84" rx="42" fill="#38B2AC"/>
<rect x="992" y="992" width="84" height="84" rx="42" fill="#121212"/>
<rect x="1116" y="992" width="84" height="84" rx="42" fill="#121212"/>
<rect x="1240" y="992" width="84" height="84" rx="42" fill="#121212"/>
<rect x="1364" y="992" width="84" height="84" rx="20" fill="#999999" fill-opacity="0.2"/>
<rect opacity="0.6" x="1488" y="992" width="84" height="84" rx="20" fill="#999999" fill-opacity="0.2"/>
<rect opacity="0.6" x="1612" y="992" width="84" height="84" rx="20" fill="#999999" fill-opacity="0.2"/>
<rect opacity="0.6" x="1736" y="992" width="84" height="84" rx="20" fill="#999999" fill-opacity="0.2"/>
<rect opacity="0.1" y="1116" width="84" height="84" rx="20" fill="#999999" fill-opacity="0.2"/>
<rect opacity="0.6" x="124" y="1116" width="84" height="84" rx="20" fill="#999999" fill-opacity="0.2"/>
<rect x="248" y="1116" width="84" height="84" rx="20" fill="#999999" fill-opacity="0.2"/>
<rect x="372" y="1116" width="84" height="84" rx="42" fill="#38B2AC"/>
<rect x="496" y="1116" width="84" height="84" rx="42" fill="#38B2AC"/>
<rect x="620" y="1116" width="84" height="84" rx="42" fill="#38B2AC"/>
<rect x="744" y="1116" width="84" height="84" rx="42" fill="#38B2AC"/>
<rect x="868" y="1116" width="84" height="84" rx="42" fill="#121212"/>
<rect x="992" y="1116" width="84" height="84" rx="42" fill="#121212"/>
<rect x="1116" y="1116" width="84" height="84" rx="42" fill="#121212"/>
<rect x="1240" y="1116" width="84" height="84" rx="20" fill="#999999" fill-opacity="0.2"/>
<rect x="1364" y="1116" width="84" height="84" rx="20" fill="#999999" fill-opacity="0.2"/>
<rect x="1488" y="1116" width="84" height="84" rx="20" fill="#999999" fill-opacity="0.2"/>
<rect x="1612" y="1116" width="84" height="84" rx="20" fill="#999999" fill-opacity="0.2"/>
<rect x="1736" y="1116" width="84" height="84" rx="20" fill="#999999" fill-opacity="0.2"/>
<rect y="1240" width="84" height="84" rx="20" fill="#999999" fill-opacity="0.2"/>
<rect x="124" y="1240" width="84" height="84" rx="20" fill="#999999" fill-opacity="0.2"/>
<rect x="248" y="1240" width="84" height="84" rx="20" fill="#999999" fill-opacity="0.2"/>
<rect opacity="0.5" x="372" y="1240" width="84" height="84" rx="20" fill="#999999" fill-opacity="0.2"/>
<rect x="496" y="1240" width="84" height="84" rx="42" fill="#38B2AC"/>
<rect x="620" y="1240" width="84" height="84" rx="42" fill="#38B2AC"/>
<rect x="744" y="1240" width="84" height="84" rx="42" fill="#38B2AC"/>
<rect x="868" y="1240" width="84" height="84" rx="42" fill="#121212"/>
<rect x="992" y="1240" width="84" height="84" rx="42" fill="#121212"/>
<rect x="1116" y="1240" width="84" height="84" rx="20" fill="#999999" fill-opacity="0.2"/>
<rect x="1240" y="1240" width="84" height="84" rx="42" fill="#121212"/>
<rect x="1364" y="1240" width="84" height="84" rx="42" fill="#121212"/>
<rect x="1488" y="1240" width="84" height="84" rx="20" fill="#999999" fill-opacity="0.2"/>
<rect opacity="0.4" x="1612" y="1240" width="84" height="84" rx="20" fill="#999999" fill-opacity="0.2"/>
<rect x="1736" y="1240" width="84" height="84" rx="20" fill="#999999" fill-opacity="0.2"/>
<rect y="1364" width="84" height="84" rx="20" fill="#999999" fill-opacity="0.2"/>
<rect x="124" y="1364" width="84" height="84" rx="20" fill="#999999" fill-opacity="0.2"/>
<rect opacity="0.3" x="248" y="1364" width="84" height="84" rx="20" fill="#999999" fill-opacity="0.2"/>
<rect x="372" y="1364" width="84" height="84" rx="20" fill="#999999" fill-opacity="0.2"/>
<rect x="496" y="1364" width="84" height="84" rx="20" fill="#999999" fill-opacity="0.2"/>
<rect x="620" y="1364" width="84" height="84" rx="20" fill="#999999" fill-opacity="0.2"/>
<rect opacity="0.98" x="744" y="1364" width="84" height="84" rx="20" fill="#999999" fill-opacity="0.2"/>
<rect x="868" y="1364" width="84" height="84" rx="20" fill="#999999" fill-opacity="0.2"/>
<rect opacity="0.5" x="992" y="1364" width="84" height="84" rx="20" fill="#999999" fill-opacity="0.2"/>
<rect x="1116" y="1364" width="84" height="84" rx="20" fill="#999999" fill-opacity="0.2"/>
<rect x="1240" y="1364" width="84" height="84" rx="42" fill="#121212"/>
<rect x="1364" y="1364" width="84" height="84" rx="42" fill="#121212"/>
<rect x="1488" y="1364" width="84" height="84" rx="20" fill="#999999" fill-opacity="0.2"/>
<rect x="1612" y="1364" width="84" height="84" rx="20" fill="#999999" fill-opacity="0.2"/>
<rect x="1736" y="1364" width="84" height="84" rx="20" fill="#999999" fill-opacity="0.2"/>
<rect opacity="0.4" y="1488" width="84" height="84" rx="20" fill="#999999" fill-opacity="0.2"/>
<rect x="124" y="1488" width="84" height="84" rx="20" fill="#999999" fill-opacity="0.2"/>
<rect x="248" y="1488" width="84" height="84" rx="20" fill="#999999" fill-opacity="0.2"/>
<rect x="372" y="1488" width="84" height="84" rx="20" fill="#999999" fill-opacity="0.2"/>
<rect x="496" y="1488" width="84" height="84" rx="20" fill="#999999" fill-opacity="0.2"/>
<rect x="620" y="1488" width="84" height="84" rx="20" fill="#999999" fill-opacity="0.2"/>
<rect opacity="0.3" x="744" y="1488" width="84" height="84" rx="20" fill="#999999" fill-opacity="0.2"/>
<rect x="868" y="1488" width="84" height="84" rx="20" fill="#999999" fill-opacity="0.2"/>
<rect x="992" y="1488" width="84" height="84" rx="20" fill="#999999" fill-opacity="0.2"/>
<rect x="1116" y="1488" width="84" height="84" rx="20" fill="#999999" fill-opacity="0.2"/>
<rect opacity="0.5" x="1240" y="1488" width="84" height="84" rx="20" fill="#999999" fill-opacity="0.2"/>
<rect x="1364" y="1488" width="84" height="84" rx="20" fill="#999999" fill-opacity="0.2"/>
<rect x="1488" y="1488" width="84" height="84" rx="20" fill="#999999" fill-opacity="0.2"/>
<rect opacity="0.3" x="1612" y="1488" width="84" height="84" rx="20" fill="#999999" fill-opacity="0.2"/>
<rect x="1736" y="1488" width="84" height="84" rx="20" fill="#999999" fill-opacity="0.2"/>
<rect y="1612" width="84" height="84" rx="20" fill="#999999" fill-opacity="0.2"/>
<rect x="124" y="1612" width="84" height="84" rx="20" fill="#999999" fill-opacity="0.2"/>
<rect opacity="0.4" x="248" y="1612" width="84" height="84" rx="20" fill="#999999" fill-opacity="0.2"/>
<rect x="372" y="1612" width="84" height="84" rx="20" fill="#999999" fill-opacity="0.2"/>
<rect x="496" y="1612" width="84" height="84" rx="20" fill="#999999" fill-opacity="0.2"/>
<rect x="620" y="1612" width="84" height="84" rx="20" fill="#999999" fill-opacity="0.2"/>
<rect opacity="0.7" x="744" y="1612" width="84" height="84" rx="20" fill="#999999" fill-opacity="0.2"/>
<rect x="868" y="1612" width="84" height="84" rx="20" fill="#999999" fill-opacity="0.2"/>
<rect x="992" y="1612" width="84" height="84" rx="20" fill="#999999" fill-opacity="0.2"/>
<rect x="1116" y="1612" width="84" height="84" rx="20" fill="#999999" fill-opacity="0.2"/>
<rect opacity="0.9" x="1240" y="1612" width="84" height="84" rx="20" fill="#999999" fill-opacity="0.2"/>
<rect x="1364" y="1612" width="84" height="84" rx="20" fill="#999999" fill-opacity="0.2"/>
<rect opacity="0.7" x="1488" y="1612" width="84" height="84" rx="20" fill="#999999" fill-opacity="0.2"/>
<rect x="1612" y="1612" width="84" height="84" rx="20" fill="#999999" fill-opacity="0.2"/>
<rect x="1736" y="1612" width="84" height="84" rx="20" fill="#999999" fill-opacity="0.2"/>
<rect y="1736" width="84" height="84" rx="20" fill="#999999" fill-opacity="0.2"/>
<rect opacity="0.5" x="124" y="1736" width="84" height="84" rx="20" fill="#999999" fill-opacity="0.2"/>
<rect x="248" y="1736" width="84" height="84" rx="20" fill="#999999" fill-opacity="0.2"/>
<rect x="372" y="1736" width="84" height="84" rx="20" fill="#999999" fill-opacity="0.2"/>
<rect x="496" y="1736" width="84" height="84" rx="20" fill="#999999" fill-opacity="0.2"/>
<rect x="620" y="1736" width="84" height="84" rx="20" fill="#999999" fill-opacity="0.2"/>
<rect opacity="0.9" x="744" y="1736" width="84" height="84" rx="20" fill="#999999" fill-opacity="0.2"/>
<rect opacity="0.3" x="868" y="1736" width="84" height="84" rx="20" fill="#999999" fill-opacity="0.2"/>
<rect x="992" y="1736" width="84" height="84" rx="20" fill="#999999" fill-opacity="0.2"/>
<rect x="1116" y="1736" width="84" height="84" rx="20" fill="#999999" fill-opacity="0.2"/>
<rect opacity="0.8" x="1240" y="1736" width="84" height="84" rx="20" fill="#999999" fill-opacity="0.2"/>
<rect x="1364" y="1736" width="84" height="84" rx="20" fill="#999999" fill-opacity="0.2"/>
<rect x="1488" y="1736" width="84" height="84" rx="20" fill="#999999" fill-opacity="0.2"/>
<rect opacity="0.32" x="1612" y="1736" width="84" height="84" rx="20" fill="#999999" fill-opacity="0.2"/>
<rect x="1736" y="1736" width="84" height="84" rx="20" fill="#999999" fill-opacity="0.2"/>
</svg>
